<svg xmlns="http://www.w3.org/2000/svg" width="3079.453" height="1402" viewBox="0 0 3079.453 1402">
  <g id="Group_1" data-name="Group 1" transform="translate(467.232 16)">
    <g id="double-abstract" transform="translate(-468 -16)">
      <path id="Path_1" data-name="Path 1" d="M1311,0H241.53C160.957,0,91.45,56.592,74.793,135.676L0,491H1073.094c81.184,0,151.05-57.453,167.043-137.315Z" transform="translate(2 1)" fill="none" stroke="#e6e6e6" stroke-width="2" fill-rule="evenodd"/>
      <path id="Path_2" data-name="Path 2" d="M1900,303H830.53c-80.574,0-150.081,56.592-166.738,135.676L589,794H1662.094c81.184,0,151.05-57.453,167.043-137.315Z" transform="translate(2 1)" fill="none" stroke="#e6e6e6" stroke-width="2" fill-rule="evenodd"/>
    </g>
    <g id="double-abstract-2" data-name="double-abstract" transform="translate(709 590)">
      <path id="Path_1-2" data-name="Path 1" d="M1311,0H241.53C160.957,0,91.45,56.592,74.793,135.676L0,491H1073.094c81.184,0,151.05-57.453,167.043-137.315Z" transform="translate(2 1)" fill="none" stroke="#e6e6e6" stroke-width="2" fill-rule="evenodd"/>
      <path id="Path_2-2" data-name="Path 2" d="M1900,303H830.53c-80.574,0-150.081,56.592-166.738,135.676L589,794H1662.094c81.184,0,151.05-57.453,167.043-137.315Z" transform="translate(2 1)" fill="none" stroke="#e6e6e6" stroke-width="2" fill-rule="evenodd"/>
    </g>
  </g>
</svg>
